<svg width="36" height="36" viewBox="0 0 36 36" fill="none" xmlns="http://www.w3.org/2000/svg">
<rect width="36" height="36" rx="18" fill="#3F51B5"/>
<path d="M13.2344 21.2734L16.5859 11.625H18.2188L14.0078 23H12.8438L13.2344 21.2734ZM10.1016 11.625L13.4219 21.2734L13.8359 23H12.6719L8.46875 11.625H10.1016ZM25.0234 19.6797V11.625H26.5234V19.6797C26.5234 20.4297 26.3698 21.0625 26.0625 21.5781C25.7552 22.0938 25.3307 22.487 24.7891 22.7578C24.2526 23.0234 23.6354 23.1562 22.9375 23.1562C22.2396 23.1562 21.6198 23.0365 21.0781 22.7969C20.5365 22.5573 20.112 22.1927 19.8047 21.7031C19.4974 21.2135 19.3438 20.5964 19.3438 19.8516H20.8516C20.8516 20.3307 20.9401 20.724 21.1172 21.0312C21.2943 21.3385 21.5391 21.5651 21.8516 21.7109C22.1693 21.8568 22.5312 21.9297 22.9375 21.9297C23.3333 21.9297 23.6875 21.8464 24 21.6797C24.3177 21.5078 24.5677 21.2552 24.75 20.9219C24.9323 20.5833 25.0234 20.1693 25.0234 19.6797Z" fill="white"/>
</svg>
